<svg width="24" height="24" viewBox="0 0 24 24" fill="none" xmlns="http://www.w3.org/2000/svg">
<path d="M2.64907 3.50005C2.55555 3.49891 2.4629 3.51713 2.37763 3.55344C2.29235 3.58975 2.21652 3.64327 2.15545 3.71023C2.09439 3.77719 2.04957 3.85597 2.02414 3.94105C1.99871 4.02613 1.99329 4.11543 2.00826 4.2027L4.72848 19.8124C4.76237 20.0035 4.86638 20.1771 5.02224 20.3028C5.17811 20.4285 5.37585 20.4983 5.58075 20.4999H18.6307C18.7843 20.5018 18.9335 20.4515 19.0511 20.3581C19.1687 20.2647 19.247 20.1345 19.2715 19.9911L21.9917 4.20573C22.0067 4.11846 22.0013 4.02915 21.9759 3.94408C21.9504 3.859 21.9056 3.78022 21.8445 3.71325C21.7835 3.64629 21.7076 3.59278 21.6224 3.55647C21.5371 3.52016 21.4445 3.50194 21.3509 3.50308L2.64907 3.50005ZM14.1025 14.7818H9.93821L8.80948 9.21211H15.1118L14.1025 14.7818Z" fill="#2684FF"/>
<path d="M21.1258 9.21211H15.1118L14.1025 14.7818H9.93821L5.01915 20.3001C5.17504 20.4275 5.37467 20.4983 5.58075 20.4999H18.633C18.7866 20.5018 18.9358 20.4515 19.0534 20.3581C19.1711 20.2647 19.2493 20.1345 19.2738 19.9911L21.1258 9.21211Z" fill="url(#paint0_linear_4887_25876)"/>
<defs>
<linearGradient id="paint0_linear_4887_25876" x1="22.516" y1="10.7719" x2="13.006" y2="18.6238" gradientUnits="userSpaceOnUse">
<stop offset="0.18" stop-color="#0052CC"/>
<stop offset="1" stop-color="#2684FF"/>
</linearGradient>
</defs>
</svg>
