<svg width="413" height="248" viewBox="0 0 413 248" fill="none" xmlns="http://www.w3.org/2000/svg">
<g clip-path="url(#clip0_3661_14595)">
<path d="M56.1914 159.9H366.798V2.56387H56.1914V159.9Z" fill="white"/>
<path d="M369.36 162.464H53.6289V0H369.36V162.464ZM58.7534 157.337H364.236V5.12751H58.7534V157.337Z" fill="#E5E5E5"/>
<path d="M201.159 35.8491V89.251H123.576L109.244 106.458L110.88 89.251H103.906V35.8491H201.159Z" fill="#0A8BFE"/>
<path d="M248.109 39.0175V73.2566H297.852L307.041 84.2889L305.992 73.2566H310.463V39.0175H248.109Z" fill="#F0F0F0"/>
<path d="M42.8208 194.95H47.3086L49.4437 177.63H42.8203L42.8208 194.95Z" fill="#FFB7B7"/>
<path d="M41.6758 193.484L50.5138 193.484C52.0076 193.484 53.4404 194.077 54.4967 195.134C55.5529 196.191 56.1464 197.624 56.1465 199.119V199.302L41.676 199.303L41.6758 193.484Z" fill="#2F2E41"/>
<path d="M96.7383 194.802L101.096 193.729L99.0331 176.4L92.6016 177.984L96.7383 194.802Z" fill="#FFB7B7"/>
<path d="M95.2773 193.653L103.859 191.539C105.31 191.182 106.843 191.416 108.121 192.19C109.399 192.964 110.318 194.213 110.675 195.665L110.718 195.843L96.6671 199.303L95.2773 193.653Z" fill="#2F2E41"/>
<path d="M40.0586 190.82L40.9909 186.048C40.9909 186.048 42.7069 167.62 55.0225 149.229L59.0312 129.25C59.0312 129.25 57.8407 114.128 69.3313 105.942L72.8739 103.5L85.2942 104.213L88.1628 119.927L93.9428 157.109C93.9428 157.109 95.4344 157.249 95.9937 161.549C97.1306 163.354 97.8032 165.413 97.9515 167.542C97.9515 167.542 100.909 175.707 101.702 181.719L101.609 187.601L95.3626 190.931L82.3442 154.092L73.0328 133.497C73.0328 133.497 68.5513 148.008 61.6869 160.439C61.6869 160.439 52.2849 180.801 50.4066 184.938L48.3557 191.708L40.0586 190.82Z" fill="#2F2E41"/>
<path d="M81.5886 71.8799C86.4915 71.8799 90.4662 67.9028 90.4662 62.997C90.4662 58.0911 86.4915 54.1141 81.5886 54.1141C76.6856 54.1141 72.7109 58.0911 72.7109 62.997C72.7109 67.9028 76.6856 71.8799 81.5886 71.8799Z" fill="#FFB7B7"/>
<path d="M81.5886 71.8799C86.4915 71.8799 90.4662 67.9028 90.4662 62.997C90.4662 58.0911 86.4915 54.1141 81.5886 54.1141C76.6856 54.1141 72.7109 58.0911 72.7109 62.997C72.7109 67.9028 76.6856 71.8799 81.5886 71.8799Z" fill="#FFB8B8"/>
<path d="M69.3594 106.037L72.29 98.7123C70.2194 92.0017 70.3463 84.8045 72.6522 78.1711L73.2129 77.7091C78.0976 73.6841 82.3848 74.4169 86.3632 79.3405C87.0038 80.1409 87.7531 80.8478 88.5893 81.4407C90.344 82.6725 93.1277 89.3648 89.4522 93.2877L86.5118 110.45C86.8214 119.926 79.9495 116.358 69.3594 106.037Z" fill="#3F3D56"/>
<path d="M111.382 96.0747C111.003 95.7879 110.566 95.5878 110.101 95.4884C109.636 95.3889 109.155 95.3927 108.692 95.4993C108.229 95.6059 107.795 95.8128 107.421 96.1055C107.046 96.3981 106.74 96.7694 106.525 97.1931L99.1198 96.6162L97.6719 101.033L108.141 101.701C108.876 102.016 109.701 102.051 110.46 101.798C111.219 101.545 111.859 101.022 112.259 100.328C112.658 99.6348 112.79 98.8188 112.628 98.0348C112.466 97.2508 112.023 96.5534 111.382 96.0747Z" fill="#FFB7B7"/>
<path d="M104.289 103.24L83.1888 99.2981L76.3258 87.7851C75.8849 86.5617 75.9477 85.2131 76.5004 84.0361C77.0531 82.859 78.0505 81.9499 79.2732 81.5087C80.4958 81.0674 81.8436 81.1303 83.0199 81.6833C84.1963 82.2364 85.1049 83.2344 85.5458 84.4578L88.7648 93.3645L105.452 96.1284L104.289 103.24Z" fill="#CCCCCC"/>
<path d="M65.7631 61.0514C70.4669 61.0514 74.2801 57.2359 74.2801 52.5294C74.2801 47.8228 70.4669 44.0073 65.7631 44.0073C61.0593 44.0073 57.2461 47.8228 57.2461 52.5294C57.2461 57.2359 61.0593 61.0514 65.7631 61.0514Z" fill="#2F2E41"/>
<path d="M58.4174 59.5862C59.5198 60.3834 60.7969 60.9049 62.142 61.107C63.4871 61.309 64.861 61.1859 66.1487 60.7478C67.4365 60.3096 68.6006 59.5693 69.5438 58.5887C70.487 57.6081 71.1817 56.4157 71.5699 55.1114C71.423 56.2803 71.0355 57.406 70.4319 58.4175C69.8282 59.429 69.0215 60.3043 68.0628 60.9881C67.104 61.6719 66.0139 62.1494 64.8614 62.3904C63.7089 62.6314 62.519 62.6306 61.3667 62.3883C60.2145 62.1459 59.125 61.6671 58.1671 60.9822C57.2091 60.2973 56.4034 59.421 55.801 58.4088C55.1985 57.3966 54.8124 56.2704 54.6669 55.1014C54.5213 53.9323 54.6197 52.7457 54.9556 51.6166C54.7648 53.1336 54.9855 54.674 55.5946 56.0762C56.2037 57.4785 57.1788 58.6908 58.4174 59.5862Z" fill="#2F2E41"/>
<path d="M92.0306 59.5956C90.5438 56.9322 89.9748 55.8196 88.0577 54.2C86.3624 52.7676 84.2771 52.3469 82.5952 53.7041C80.6055 52.8439 78.3915 52.6489 76.2822 53.148C74.1728 53.647 72.2807 54.8136 70.8867 56.4744C69.4927 58.1352 68.6714 60.2016 68.5446 62.3667C68.4178 64.5318 68.9924 66.68 70.183 68.4923C71.3736 70.3046 73.1167 71.6843 75.1533 72.4265C77.19 73.1686 79.4116 73.2336 81.4881 72.6117C83.5646 71.9899 85.3852 70.7145 86.6796 68.9749C87.9739 67.2352 88.673 65.1242 88.6728 62.9555C88.6713 62.5746 88.6484 62.1941 88.6042 61.8158C90.0662 61.6104 90.5686 59.8011 92.0306 59.5956Z" fill="#2F2E41"/>
<path d="M353.854 123.351C353.881 122.763 354.038 122.189 354.311 121.668C354.585 121.147 354.97 120.693 355.438 120.337C355.906 119.981 356.447 119.732 357.022 119.607C357.597 119.483 358.192 119.486 358.765 119.617L364.085 112.115L369.43 114.238L361.768 124.727C361.485 125.676 360.864 126.488 360.022 127.01C359.18 127.532 358.176 127.726 357.2 127.556C356.225 127.387 355.345 126.865 354.728 126.09C354.112 125.315 353.8 124.341 353.854 123.351Z" fill="#A0616A"/>
<path d="M359.691 116.9L369.15 100.982L365.297 90.699L370.545 76.6939L370.739 76.777C370.866 76.8314 373.848 78.163 374.29 82.9317L380.322 101.899L364.224 122.795L359.691 116.9Z" fill="#3F3D56"/>
<path d="M308.32 58.3803C308.904 58.4535 309.464 58.6539 309.962 58.9673C310.46 59.2806 310.883 59.6994 311.201 60.1941C311.52 60.6888 311.726 61.2473 311.806 61.8304C311.885 62.4135 311.836 63.0069 311.661 63.5689L318.725 69.4562L316.196 74.6239L306.338 66.1697C305.414 65.8138 304.652 65.131 304.198 64.2508C303.743 63.3707 303.627 62.3542 303.871 61.394C304.116 60.4339 304.703 59.5968 305.523 59.0413C306.343 58.4859 307.338 58.2507 308.32 58.3803Z" fill="#A0616A"/>
<path d="M314.295 64.7011L329.425 75.368L339.969 72.3186L353.518 78.6374L353.42 78.8241C353.356 78.9465 351.799 81.8187 347.013 81.8909L327.647 86.4416L308.07 68.767L314.295 64.7011Z" fill="#3F3D56"/>
<path d="M341.981 194.416H336.721L334.219 174.116L341.982 174.116L341.981 194.416Z" fill="#A0616A"/>
<path d="M332.961 192.912H343.105V199.302H326.574C326.574 198.463 326.739 197.632 327.06 196.857C327.381 196.081 327.852 195.377 328.445 194.784C329.038 194.19 329.742 193.719 330.517 193.398C331.292 193.077 332.122 192.912 332.961 192.912Z" fill="#2F2E41"/>
<path d="M363 194.416H357.74L355.238 174.116L363.001 174.116L363 194.416Z" fill="#A0616A"/>
<path d="M353.985 192.912H364.128V199.302H347.598C347.598 198.463 347.763 197.632 348.084 196.857C348.405 196.081 348.875 195.377 349.468 194.784C350.061 194.19 350.765 193.719 351.54 193.398C352.315 193.077 353.146 192.912 353.985 192.912Z" fill="#2F2E41"/>
<path d="M364.873 120.319L364.444 150.369L364.015 189.863L354.577 189.004L349.857 134.486L343.851 189.004H334.107L333.125 134.056L336.557 122.036L364.873 120.319Z" fill="#2F2E41"/>
<path d="M335.618 122.22L334.18 122.158L340.859 85.3427L338.124 74.2153C337.982 73.6364 338.057 73.0254 338.335 72.4981C338.613 71.9709 339.074 71.564 339.632 71.3545L344.553 69.5084L346.291 64.7252L360.006 66.2039L360.343 69.9422C361.829 70.4191 374.068 74.4974 373.223 79.1443C372.39 83.731 367.469 98.1614 367.219 98.8927L366.357 119.588L366.251 119.641C366.124 119.705 356.67 124.355 346.401 124.355C342.696 124.417 339.02 123.689 335.618 122.22Z" fill="#3F3D56"/>
<path d="M352.609 62.358C358.063 62.358 362.484 57.9343 362.484 52.4774C362.484 47.0204 358.063 42.5967 352.609 42.5967C347.155 42.5967 342.734 47.0204 342.734 52.4774C342.734 57.9343 347.155 62.358 352.609 62.358Z" fill="#A0616A"/>
<path d="M360.61 62.0421C358.728 64.0479 355.233 62.9712 354.988 60.2309C354.968 60.0182 354.97 59.8041 354.992 59.5916C355.118 58.3778 355.819 57.2758 355.651 55.9942C355.613 55.6753 355.494 55.3713 355.306 55.1111C353.807 53.1018 350.286 56.0098 348.871 54.1908C348.003 53.0755 349.023 51.3194 348.357 50.0728C347.478 48.4275 344.875 49.2391 343.242 48.3381C341.426 47.3355 341.534 44.5468 342.73 42.8506C344.188 40.782 346.745 39.6782 349.27 39.5191C351.795 39.36 354.303 40.043 356.66 40.9622C359.338 42.0066 361.994 43.4499 363.642 45.8064C365.647 48.6721 365.84 52.5248 364.837 55.8757C364.228 57.9141 362.146 60.4042 360.61 62.0421Z" fill="#2F2E41"/>
<path d="M253.621 191.686L255.088 187.91L241.232 180.451L239.066 186.024L253.621 191.686Z" fill="#FFB8B8"/>
<path d="M261.481 181.836C260.859 181.594 260.195 181.477 259.528 181.491C258.861 181.506 258.203 181.652 257.592 181.921C256.982 182.19 256.43 182.576 255.969 183.059C255.507 183.542 255.146 184.11 254.904 184.733L253.914 187.278L252.389 191.207L252.016 192.17L256.905 194.073L261.634 181.897L261.481 181.836Z" fill="#2F2E41"/>
<path d="M252.388 184.42L251.75 186.113L250.157 190.338L250.119 190.444C246.062 190.965 241.615 189.943 237.501 188.354C235.856 187.719 234.244 187 232.672 186.198C230.346 185.022 228.263 183.781 226.601 182.719C224.099 181.112 222.552 179.906 222.552 179.906C222.552 179.906 222.144 180.276 221.404 180.909C220.413 181.758 218.829 183.083 216.823 184.643C216.058 185.242 215.236 185.869 214.358 186.523C207.885 191.327 199.578 178.508 199.578 178.508C199.578 178.508 201.914 177.02 202.525 176.731C204.49 175.801 209.107 173.605 213.09 171.654C215.142 170.648 217.024 169.704 218.287 169.033C222.76 166.65 228.321 171.16 228.321 171.16L252.388 184.42Z" fill="#2F2E41"/>
<path opacity="0.14" d="M252.388 184.42L251.75 186.113L250.157 190.338L250.119 190.444C246.062 190.965 241.615 189.943 237.501 188.354C235.856 187.719 234.244 187 232.672 186.198C230.346 185.022 228.263 183.781 226.601 182.719C224.099 181.112 222.552 179.906 222.552 179.906C222.552 179.906 222.144 180.276 221.404 180.909C220.413 181.758 218.829 183.083 216.823 184.643C216.058 185.242 215.236 185.869 214.358 186.523C207.885 191.327 199.578 178.508 199.578 178.508C199.578 178.508 201.914 177.02 202.525 176.731C204.49 175.801 209.107 173.605 213.09 171.654C215.142 170.648 217.024 169.704 218.287 169.033C222.76 166.65 228.321 171.16 228.321 171.16L252.388 184.42Z" fill="black"/>
<path d="M187.643 148.882H168.49C168.096 148.881 167.718 148.724 167.44 148.446C167.161 148.167 167.004 147.789 167.004 147.395V139.134C167.004 136.198 168.169 133.383 170.244 131.307C172.319 129.231 175.133 128.065 178.067 128.065C181.001 128.065 183.815 129.231 185.889 131.307C187.964 133.383 189.13 136.198 189.13 139.134V147.395C189.129 147.789 188.972 148.167 188.694 148.446C188.415 148.724 188.037 148.881 187.643 148.882Z" fill="#2F2E41"/>
<path d="M205.858 159.258C205.413 159.336 204.989 159.511 204.618 159.771C204.248 160.031 203.938 160.369 203.712 160.761C203.486 161.153 203.348 161.59 203.309 162.042C203.27 162.493 203.33 162.947 203.486 163.373L198.277 168.166L200.416 172.043L207.676 165.171C208.373 164.863 208.933 164.309 209.249 163.615C209.566 162.921 209.617 162.135 209.393 161.406C209.168 160.677 208.685 160.056 208.034 159.66C207.382 159.264 206.608 159.121 205.858 159.258Z" fill="#FFB8B8"/>
<path d="M190.187 181.05C189.952 181.05 189.716 181.04 189.48 181.019C188.075 180.902 186.723 180.43 185.55 179.646C184.378 178.863 183.424 177.794 182.777 176.54L174.433 160.471C173.886 159.418 173.766 158.194 174.098 157.055C174.43 155.916 175.188 154.949 176.214 154.354C177.24 153.76 178.456 153.584 179.609 153.864C180.761 154.144 181.761 154.857 182.401 155.856L190.099 173.139L200.574 164.623L206.639 166.986L196.397 178.3C195.609 179.165 194.65 179.856 193.581 180.329C192.512 180.803 191.356 181.048 190.187 181.05Z" fill="#0A8BFE"/>
<path d="M252.448 196.997L254.2 193.345L240.958 184.843L238.371 190.233L252.448 196.997Z" fill="#FFB8B8"/>
<path d="M261.043 187.78C260.442 187.491 259.789 187.323 259.123 187.286C258.456 187.249 257.789 187.344 257.16 187.565C256.53 187.787 255.95 188.13 255.453 188.575C254.956 189.021 254.552 189.56 254.263 190.162L253.081 192.624L251.258 196.424L250.812 197.356L255.541 199.629L261.192 187.853L261.043 187.78Z" fill="#2F2E41"/>
<path d="M251.781 189.657L251.015 191.296L249.103 195.386L249.056 195.489C244.971 195.697 240.616 194.336 236.636 192.436C235.044 191.676 233.492 190.834 231.987 189.915C229.758 188.563 227.776 187.165 226.201 185.979C223.83 184.185 222.38 182.863 222.38 182.863C222.38 182.863 221.944 183.2 221.158 183.775C220.105 184.545 218.424 185.745 216.304 187.146C215.495 187.684 214.627 188.246 213.702 188.831C206.879 193.123 197.177 198.35 188.924 199.454C174.43 201.394 177.842 182.04 177.842 182.04L189.377 176.047L194.274 177.041L199.726 178.145L201.658 178.538C201.658 178.538 202.025 178.399 202.655 178.158C204.686 177.381 209.458 175.548 213.579 173.909C215.703 173.063 217.651 172.266 218.962 171.695C223.605 169.663 228.803 174.586 228.803 174.586L251.781 189.657Z" fill="#2F2E41"/>
<path d="M156.732 199.916C157.173 199.815 157.587 199.618 157.943 199.339C158.3 199.061 158.592 198.707 158.798 198.304C159.003 197.9 159.118 197.457 159.134 197.004C159.15 196.551 159.066 196.1 158.889 195.684L163.842 190.627L161.506 186.866L154.61 194.105C153.93 194.449 153.4 195.031 153.12 195.74C152.84 196.449 152.83 197.237 153.091 197.953C153.353 198.669 153.868 199.265 154.539 199.627C155.21 199.989 155.99 200.092 156.732 199.916Z" fill="#FFB8B8"/>
<path d="M180.778 149.25C185.043 149.25 188.501 145.791 188.501 141.523C188.501 137.255 185.043 133.795 180.778 133.795C176.512 133.795 173.055 137.255 173.055 141.523C173.055 145.791 176.512 149.25 180.778 149.25Z" fill="#FFB8B8"/>
<path d="M170.73 162.973L177.458 182.058L177.418 182.124C176.482 183.672 176.176 184.921 176.533 185.735C176.627 185.942 176.765 186.126 176.937 186.274C177.109 186.423 177.312 186.532 177.53 186.595L193.45 175.461L192.893 170.998L192.924 170.948C194.463 168.485 194.961 166.254 194.405 164.318C193.901 162.751 192.814 161.438 191.368 160.653L191.313 160.609L183.372 150.939L172.758 152.826L170.73 162.973Z" fill="#0A8BFE"/>
<path d="M160.499 196.471L155.992 190.921L166.857 172.975L171.922 157.309C172.199 156.453 172.656 155.666 173.262 155.002C173.868 154.338 174.609 153.811 175.436 153.458C176.263 153.105 177.156 152.933 178.055 152.954C178.953 152.975 179.837 153.189 180.646 153.581C181.456 153.973 182.171 154.534 182.746 155.226C183.32 155.918 183.739 156.725 183.975 157.593C184.211 158.461 184.259 159.369 184.114 160.257C183.97 161.145 183.637 161.992 183.138 162.74L173.839 176.68L160.499 196.471Z" fill="#0A8BFE"/>
<path d="M191.747 139.96H180.035L179.915 138.277L179.315 139.96H177.511L177.273 136.625L176.083 139.96H172.594V139.795C172.596 137.473 173.519 135.248 175.16 133.606C176.8 131.964 179.025 131.041 181.345 131.038H182.996C185.316 131.041 187.541 131.964 189.181 133.606C190.822 135.248 191.745 137.473 191.747 139.795V139.96Z" fill="#2F2E41"/>
<path d="M179.937 150.424C179.848 150.423 179.76 150.416 179.674 150.4L171.098 148.886V134.704H180.538L180.304 134.977C177.053 138.772 179.502 144.925 181.252 148.255C181.381 148.499 181.439 148.774 181.418 149.05C181.398 149.325 181.3 149.588 181.136 149.81C180.999 150 180.818 150.155 180.61 150.261C180.401 150.368 180.171 150.424 179.937 150.424Z" fill="#2F2E41"/>
<path d="M308.068 125.016V144.995H219.611L206.838 160.33L208.297 144.995H202.082V125.016H308.068Z" fill="#F0F0F0"/>
<path d="M238.857 138.595C240.856 138.595 242.476 136.973 242.476 134.974C242.476 132.974 240.856 131.353 238.857 131.353C236.858 131.353 235.238 132.974 235.238 134.974C235.238 136.973 236.858 138.595 238.857 138.595Z" fill="white"/>
<path d="M226.642 138.595C228.641 138.595 230.261 136.973 230.261 134.974C230.261 132.974 228.641 131.353 226.642 131.353C224.644 131.353 223.023 132.974 223.023 134.974C223.023 136.973 224.644 138.595 226.642 138.595Z" fill="white"/>
<path d="M214.427 138.595C216.426 138.595 218.046 136.973 218.046 134.974C218.046 132.974 216.426 131.353 214.427 131.353C212.429 131.353 210.809 132.974 210.809 134.974C210.809 136.973 212.429 138.595 214.427 138.595Z" fill="white"/>
<path d="M412.548 199.699H0.452355C0.332383 199.699 0.217324 199.651 0.132491 199.566C0.0476583 199.481 0 199.366 0 199.246C0 199.126 0.0476583 199.011 0.132491 198.926C0.217324 198.841 0.332383 198.793 0.452355 198.793H412.548C412.668 198.793 412.783 198.841 412.868 198.926C412.952 199.011 413 199.126 413 199.246C413 199.366 412.952 199.481 412.868 199.566C412.783 199.651 412.668 199.699 412.548 199.699Z" fill="#CACACA"/>
</g>
<path d="M90.9552 230.545V231.655H88.1052V241H86.7402V231.655H83.8752V230.545H90.9552ZM96.7155 232.63C97.3355 232.63 97.8955 232.765 98.3955 233.035C98.8955 233.295 99.2855 233.69 99.5655 234.22C99.8555 234.75 100 235.395 100 236.155V241H98.6505V236.35C98.6505 235.53 98.4455 234.905 98.0355 234.475C97.6255 234.035 97.0655 233.815 96.3555 233.815C95.6355 233.815 95.0605 234.04 94.6305 234.49C94.2105 234.94 94.0005 235.595 94.0005 236.455V241H92.6355V229.9H94.0005V233.95C94.2705 233.53 94.6405 233.205 95.1105 232.975C95.5905 232.745 96.1255 232.63 96.7155 232.63ZM109.73 236.575C109.73 236.835 109.715 237.11 109.685 237.4H103.115C103.165 238.21 103.44 238.845 103.94 239.305C104.45 239.755 105.065 239.98 105.785 239.98C106.375 239.98 106.865 239.845 107.255 239.575C107.655 239.295 107.935 238.925 108.095 238.465H109.565C109.345 239.255 108.905 239.9 108.245 240.4C107.585 240.89 106.765 241.135 105.785 241.135C105.005 241.135 104.305 240.96 103.685 240.61C103.075 240.26 102.595 239.765 102.245 239.125C101.895 238.475 101.72 237.725 101.72 236.875C101.72 236.025 101.89 235.28 102.23 234.64C102.57 234 103.045 233.51 103.655 233.17C104.275 232.82 104.985 232.645 105.785 232.645C106.565 232.645 107.255 232.815 107.855 233.155C108.455 233.495 108.915 233.965 109.235 234.565C109.565 235.155 109.73 235.825 109.73 236.575ZM108.32 236.29C108.32 235.77 108.205 235.325 107.975 234.955C107.745 234.575 107.43 234.29 107.03 234.1C106.64 233.9 106.205 233.8 105.725 233.8C105.035 233.8 104.445 234.02 103.955 234.46C103.475 234.9 103.2 235.51 103.13 236.29H108.32ZM112.897 234.115C113.137 233.645 113.477 233.28 113.917 233.02C114.367 232.76 114.912 232.63 115.552 232.63V234.04H115.192C113.662 234.04 112.897 234.87 112.897 236.53V241H111.532V232.78H112.897V234.115ZM124.628 236.575C124.628 236.835 124.613 237.11 124.583 237.4H118.013C118.063 238.21 118.338 238.845 118.838 239.305C119.348 239.755 119.963 239.98 120.683 239.98C121.273 239.98 121.763 239.845 122.153 239.575C122.553 239.295 122.833 238.925 122.993 238.465H124.463C124.243 239.255 123.803 239.9 123.143 240.4C122.483 240.89 121.663 241.135 120.683 241.135C119.903 241.135 119.203 240.96 118.583 240.61C117.973 240.26 117.493 239.765 117.143 239.125C116.793 238.475 116.618 237.725 116.618 236.875C116.618 236.025 116.788 235.28 117.128 234.64C117.468 234 117.943 233.51 118.553 233.17C119.173 232.82 119.883 232.645 120.683 232.645C121.463 232.645 122.153 232.815 122.753 233.155C123.353 233.495 123.813 233.965 124.133 234.565C124.463 235.155 124.628 235.825 124.628 236.575ZM123.218 236.29C123.218 235.77 123.103 235.325 122.873 234.955C122.643 234.575 122.328 234.29 121.928 234.1C121.538 233.9 121.103 233.8 120.623 233.8C119.933 233.8 119.343 234.02 118.853 234.46C118.373 234.9 118.098 235.51 118.028 236.29H123.218ZM141.378 232.78L138.813 241H137.403L135.423 234.475L133.443 241H132.033L129.453 232.78H130.848L132.738 239.68L134.778 232.78H136.173L138.168 239.695L140.028 232.78H141.378ZM143.438 231.445C143.178 231.445 142.958 231.355 142.778 231.175C142.598 230.995 142.508 230.775 142.508 230.515C142.508 230.255 142.598 230.035 142.778 229.855C142.958 229.675 143.178 229.585 143.438 229.585C143.688 229.585 143.898 229.675 144.068 229.855C144.248 230.035 144.338 230.255 144.338 230.515C144.338 230.775 144.248 230.995 144.068 231.175C143.898 231.355 143.688 231.445 143.438 231.445ZM144.098 232.78V241H142.733V232.78H144.098ZM147.79 229.9V241H146.425V229.9H147.79ZM151.481 229.9V241H150.116V229.9H151.481ZM159.171 234.31C159.451 233.82 159.861 233.42 160.401 233.11C160.941 232.8 161.556 232.645 162.246 232.645C162.986 232.645 163.651 232.82 164.241 233.17C164.831 233.52 165.296 234.015 165.636 234.655C165.976 235.285 166.146 236.02 166.146 236.86C166.146 237.69 165.976 238.43 165.636 239.08C165.296 239.73 164.826 240.235 164.226 240.595C163.636 240.955 162.976 241.135 162.246 241.135C161.536 241.135 160.911 240.98 160.371 240.67C159.841 240.36 159.441 239.965 159.171 239.485V241H157.806V229.9H159.171V234.31ZM164.751 236.86C164.751 236.24 164.626 235.7 164.376 235.24C164.126 234.78 163.786 234.43 163.356 234.19C162.936 233.95 162.471 233.83 161.961 233.83C161.461 233.83 160.996 233.955 160.566 234.205C160.146 234.445 159.806 234.8 159.546 235.27C159.296 235.73 159.171 236.265 159.171 236.875C159.171 237.495 159.296 238.04 159.546 238.51C159.806 238.97 160.146 239.325 160.566 239.575C160.996 239.815 161.461 239.935 161.961 239.935C162.471 239.935 162.936 239.815 163.356 239.575C163.786 239.325 164.126 238.97 164.376 238.51C164.626 238.04 164.751 237.49 164.751 236.86ZM175.443 236.575C175.443 236.835 175.428 237.11 175.398 237.4H168.828C168.878 238.21 169.153 238.845 169.653 239.305C170.163 239.755 170.778 239.98 171.498 239.98C172.088 239.98 172.578 239.845 172.968 239.575C173.368 239.295 173.648 238.925 173.808 238.465H175.278C175.058 239.255 174.618 239.9 173.958 240.4C173.298 240.89 172.478 241.135 171.498 241.135C170.718 241.135 170.018 240.96 169.398 240.61C168.788 240.26 168.308 239.765 167.958 239.125C167.608 238.475 167.433 237.725 167.433 236.875C167.433 236.025 167.603 235.28 167.943 234.64C168.283 234 168.758 233.51 169.368 233.17C169.988 232.82 170.698 232.645 171.498 232.645C172.278 232.645 172.968 232.815 173.568 233.155C174.168 233.495 174.628 233.965 174.948 234.565C175.278 235.155 175.443 235.825 175.443 236.575ZM174.033 236.29C174.033 235.77 173.918 235.325 173.688 234.955C173.458 234.575 173.143 234.29 172.743 234.1C172.353 233.9 171.918 233.8 171.438 233.8C170.748 233.8 170.158 234.02 169.668 234.46C169.188 234.9 168.913 235.51 168.843 236.29H174.033ZM180.734 236.86C180.734 236.02 180.904 235.285 181.244 234.655C181.584 234.015 182.049 233.52 182.639 233.17C183.239 232.82 183.904 232.645 184.634 232.645C185.354 232.645 185.979 232.8 186.509 233.11C187.039 233.42 187.434 233.81 187.694 234.28V232.78H189.074V241H187.694V239.47C187.424 239.95 187.019 240.35 186.479 240.67C185.949 240.98 185.329 241.135 184.619 241.135C183.889 241.135 183.229 240.955 182.639 240.595C182.049 240.235 181.584 239.73 181.244 239.08C180.904 238.43 180.734 237.69 180.734 236.86ZM187.694 236.875C187.694 236.255 187.569 235.715 187.319 235.255C187.069 234.795 186.729 234.445 186.299 234.205C185.879 233.955 185.414 233.83 184.904 233.83C184.394 233.83 183.929 233.95 183.509 234.19C183.089 234.43 182.754 234.78 182.504 235.24C182.254 235.7 182.129 236.24 182.129 236.86C182.129 237.49 182.254 238.04 182.504 238.51C182.754 238.97 183.089 239.325 183.509 239.575C183.929 239.815 184.394 239.935 184.904 239.935C185.414 239.935 185.879 239.815 186.299 239.575C186.729 239.325 187.069 238.97 187.319 238.51C187.569 238.04 187.694 237.495 187.694 236.875ZM194.87 236.875C194.87 236.025 195.04 235.285 195.38 234.655C195.72 234.015 196.19 233.52 196.79 233.17C197.4 232.82 198.095 232.645 198.875 232.645C199.885 232.645 200.715 232.89 201.365 233.38C202.025 233.87 202.46 234.55 202.67 235.42H201.2C201.06 234.92 200.785 234.525 200.375 234.235C199.975 233.945 199.475 233.8 198.875 233.8C198.095 233.8 197.465 234.07 196.985 234.61C196.505 235.14 196.265 235.895 196.265 236.875C196.265 237.865 196.505 238.63 196.985 239.17C197.465 239.71 198.095 239.98 198.875 239.98C199.475 239.98 199.975 239.84 200.375 239.56C200.775 239.28 201.05 238.88 201.2 238.36H202.67C202.45 239.2 202.01 239.875 201.35 240.385C200.69 240.885 199.865 241.135 198.875 241.135C198.095 241.135 197.4 240.96 196.79 240.61C196.19 240.26 195.72 239.765 195.38 239.125C195.04 238.485 194.87 237.735 194.87 236.875ZM208.076 241.135C207.306 241.135 206.606 240.96 205.976 240.61C205.356 240.26 204.866 239.765 204.506 239.125C204.156 238.475 203.981 237.725 203.981 236.875C203.981 236.035 204.161 235.295 204.521 234.655C204.891 234.005 205.391 233.51 206.021 233.17C206.651 232.82 207.356 232.645 208.136 232.645C208.916 232.645 209.621 232.82 210.251 233.17C210.881 233.51 211.376 234 211.736 234.64C212.106 235.28 212.291 236.025 212.291 236.875C212.291 237.725 212.101 238.475 211.721 239.125C211.351 239.765 210.846 240.26 210.206 240.61C209.566 240.96 208.856 241.135 208.076 241.135ZM208.076 239.935C208.566 239.935 209.026 239.82 209.456 239.59C209.886 239.36 210.231 239.015 210.491 238.555C210.761 238.095 210.896 237.535 210.896 236.875C210.896 236.215 210.766 235.655 210.506 235.195C210.246 234.735 209.906 234.395 209.486 234.175C209.066 233.945 208.611 233.83 208.121 233.83C207.621 233.83 207.161 233.945 206.741 234.175C206.331 234.395 206.001 234.735 205.751 235.195C205.501 235.655 205.376 236.215 205.376 236.875C205.376 237.545 205.496 238.11 205.736 238.57C205.986 239.03 206.316 239.375 206.726 239.605C207.136 239.825 207.586 239.935 208.076 239.935ZM217.671 241.135C216.901 241.135 216.201 240.96 215.571 240.61C214.951 240.26 214.461 239.765 214.101 239.125C213.751 238.475 213.576 237.725 213.576 236.875C213.576 236.035 213.756 235.295 214.116 234.655C214.486 234.005 214.986 233.51 215.616 233.17C216.246 232.82 216.951 232.645 217.731 232.645C218.511 232.645 219.216 232.82 219.846 233.17C220.476 233.51 220.971 234 221.331 234.64C221.701 235.28 221.886 236.025 221.886 236.875C221.886 237.725 221.696 238.475 221.316 239.125C220.946 239.765 220.441 240.26 219.801 240.61C219.161 240.96 218.451 241.135 217.671 241.135ZM217.671 239.935C218.161 239.935 218.621 239.82 219.051 239.59C219.481 239.36 219.826 239.015 220.086 238.555C220.356 238.095 220.491 237.535 220.491 236.875C220.491 236.215 220.361 235.655 220.101 235.195C219.841 234.735 219.501 234.395 219.081 234.175C218.661 233.945 218.206 233.83 217.716 233.83C217.216 233.83 216.756 233.945 216.336 234.175C215.926 234.395 215.596 234.735 215.346 235.195C215.096 235.655 214.971 236.215 214.971 236.875C214.971 237.545 215.091 238.11 215.331 238.57C215.581 239.03 215.911 239.375 216.321 239.605C216.731 239.825 217.181 239.935 217.671 239.935ZM225.045 229.9V241H223.68V229.9H225.045ZM234.716 233.905H232.991V241H231.626V233.905H230.561V232.78H231.626V232.195C231.626 231.275 231.861 230.605 232.331 230.185C232.811 229.755 233.576 229.54 234.626 229.54V230.68C234.026 230.68 233.601 230.8 233.351 231.04C233.111 231.27 232.991 231.655 232.991 232.195V232.78H234.716V233.905ZM243.807 236.575C243.807 236.835 243.792 237.11 243.762 237.4H237.192C237.242 238.21 237.517 238.845 238.017 239.305C238.527 239.755 239.142 239.98 239.862 239.98C240.452 239.98 240.942 239.845 241.332 239.575C241.732 239.295 242.012 238.925 242.172 238.465H243.642C243.422 239.255 242.982 239.9 242.322 240.4C241.662 240.89 240.842 241.135 239.862 241.135C239.082 241.135 238.382 240.96 237.762 240.61C237.152 240.26 236.672 239.765 236.322 239.125C235.972 238.475 235.797 237.725 235.797 236.875C235.797 236.025 235.967 235.28 236.307 234.64C236.647 234 237.122 233.51 237.732 233.17C238.352 232.82 239.062 232.645 239.862 232.645C240.642 232.645 241.332 232.815 241.932 233.155C242.532 233.495 242.992 233.965 243.312 234.565C243.642 235.155 243.807 235.825 243.807 236.575ZM242.397 236.29C242.397 235.77 242.282 235.325 242.052 234.955C241.822 234.575 241.507 234.29 241.107 234.1C240.717 233.9 240.282 233.8 239.802 233.8C239.112 233.8 238.522 234.02 238.032 234.46C237.552 234.9 237.277 235.51 237.207 236.29H242.397ZM245.099 236.86C245.099 236.02 245.269 235.285 245.609 234.655C245.949 234.015 246.414 233.52 247.004 233.17C247.604 232.82 248.269 232.645 248.999 232.645C249.719 232.645 250.344 232.8 250.874 233.11C251.404 233.42 251.799 233.81 252.059 234.28V232.78H253.439V241H252.059V239.47C251.789 239.95 251.384 240.35 250.844 240.67C250.314 240.98 249.694 241.135 248.984 241.135C248.254 241.135 247.594 240.955 247.004 240.595C246.414 240.235 245.949 239.73 245.609 239.08C245.269 238.43 245.099 237.69 245.099 236.86ZM252.059 236.875C252.059 236.255 251.934 235.715 251.684 235.255C251.434 234.795 251.094 234.445 250.664 234.205C250.244 233.955 249.779 233.83 249.269 233.83C248.759 233.83 248.294 233.95 247.874 234.19C247.454 234.43 247.119 234.78 246.869 235.24C246.619 235.7 246.494 236.24 246.494 236.86C246.494 237.49 246.619 238.04 246.869 238.51C247.119 238.97 247.454 239.325 247.874 239.575C248.294 239.815 248.759 239.935 249.269 239.935C249.779 239.935 250.244 239.815 250.664 239.575C251.094 239.325 251.434 238.97 251.684 238.51C251.934 238.04 252.059 237.495 252.059 236.875ZM257.411 233.905V238.75C257.411 239.15 257.496 239.435 257.666 239.605C257.836 239.765 258.131 239.845 258.551 239.845H259.556V241H258.326C257.566 241 256.996 240.825 256.616 240.475C256.236 240.125 256.046 239.55 256.046 238.75V233.905H254.981V232.78H256.046V230.71H257.411V232.78H259.556V233.905H257.411ZM268.5 232.78V241H267.135V239.785C266.875 240.205 266.51 240.535 266.04 240.775C265.58 241.005 265.07 241.12 264.51 241.12C263.87 241.12 263.295 240.99 262.785 240.73C262.275 240.46 261.87 240.06 261.57 239.53C261.28 239 261.135 238.355 261.135 237.595V232.78H262.485V237.415C262.485 238.225 262.69 238.85 263.1 239.29C263.51 239.72 264.07 239.935 264.78 239.935C265.51 239.935 266.085 239.71 266.505 239.26C266.925 238.81 267.135 238.155 267.135 237.295V232.78H268.5ZM272.169 234.115C272.409 233.645 272.749 233.28 273.189 233.02C273.639 232.76 274.184 232.63 274.824 232.63V234.04H274.464C272.934 234.04 272.169 234.87 272.169 236.53V241H270.804V232.78H272.169V234.115ZM283.9 236.575C283.9 236.835 283.885 237.11 283.855 237.4H277.285C277.335 238.21 277.61 238.845 278.11 239.305C278.62 239.755 279.235 239.98 279.955 239.98C280.545 239.98 281.035 239.845 281.425 239.575C281.825 239.295 282.105 238.925 282.265 238.465H283.735C283.515 239.255 283.075 239.9 282.415 240.4C281.755 240.89 280.935 241.135 279.955 241.135C279.175 241.135 278.475 240.96 277.855 240.61C277.245 240.26 276.765 239.765 276.415 239.125C276.065 238.475 275.89 237.725 275.89 236.875C275.89 236.025 276.06 235.28 276.4 234.64C276.74 234 277.215 233.51 277.825 233.17C278.445 232.82 279.155 232.645 279.955 232.645C280.735 232.645 281.425 232.815 282.025 233.155C282.625 233.495 283.085 233.965 283.405 234.565C283.735 235.155 283.9 235.825 283.9 236.575ZM282.49 236.29C282.49 235.77 282.375 235.325 282.145 234.955C281.915 234.575 281.6 234.29 281.2 234.1C280.81 233.9 280.375 233.8 279.895 233.8C279.205 233.8 278.615 234.02 278.125 234.46C277.645 234.9 277.37 235.51 277.3 236.29H282.49ZM292.611 241.135C291.981 241.135 291.416 241.03 290.916 240.82C290.416 240.6 290.021 240.3 289.731 239.92C289.441 239.53 289.281 239.085 289.251 238.585H290.661C290.701 238.995 290.891 239.33 291.231 239.59C291.581 239.85 292.036 239.98 292.596 239.98C293.116 239.98 293.526 239.865 293.826 239.635C294.126 239.405 294.276 239.115 294.276 238.765C294.276 238.405 294.116 238.14 293.796 237.97C293.476 237.79 292.981 237.615 292.311 237.445C291.701 237.285 291.201 237.125 290.811 236.965C290.431 236.795 290.101 236.55 289.821 236.23C289.551 235.9 289.416 235.47 289.416 234.94C289.416 234.52 289.541 234.135 289.791 233.785C290.041 233.435 290.396 233.16 290.856 232.96C291.316 232.75 291.841 232.645 292.431 232.645C293.341 232.645 294.076 232.875 294.636 233.335C295.196 233.795 295.496 234.425 295.536 235.225H294.171C294.141 234.795 293.966 234.45 293.646 234.19C293.336 233.93 292.916 233.8 292.386 233.8C291.896 233.8 291.506 233.905 291.216 234.115C290.926 234.325 290.781 234.6 290.781 234.94C290.781 235.21 290.866 235.435 291.036 235.615C291.216 235.785 291.436 235.925 291.696 236.035C291.966 236.135 292.336 236.25 292.806 236.38C293.396 236.54 293.876 236.7 294.246 236.86C294.616 237.01 294.931 237.24 295.191 237.55C295.461 237.86 295.601 238.265 295.611 238.765C295.611 239.215 295.486 239.62 295.236 239.98C294.986 240.34 294.631 240.625 294.171 240.835C293.721 241.035 293.201 241.135 292.611 241.135ZM301.123 241.135C300.353 241.135 299.653 240.96 299.023 240.61C298.403 240.26 297.913 239.765 297.553 239.125C297.203 238.475 297.028 237.725 297.028 236.875C297.028 236.035 297.208 235.295 297.568 234.655C297.938 234.005 298.438 233.51 299.068 233.17C299.698 232.82 300.403 232.645 301.183 232.645C301.963 232.645 302.668 232.82 303.298 233.17C303.928 233.51 304.423 234 304.783 234.64C305.153 235.28 305.338 236.025 305.338 236.875C305.338 237.725 305.148 238.475 304.768 239.125C304.398 239.765 303.893 240.26 303.253 240.61C302.613 240.96 301.903 241.135 301.123 241.135ZM301.123 239.935C301.613 239.935 302.073 239.82 302.503 239.59C302.933 239.36 303.278 239.015 303.538 238.555C303.808 238.095 303.943 237.535 303.943 236.875C303.943 236.215 303.813 235.655 303.553 235.195C303.293 234.735 302.953 234.395 302.533 234.175C302.113 233.945 301.658 233.83 301.168 233.83C300.668 233.83 300.208 233.945 299.788 234.175C299.378 234.395 299.048 234.735 298.798 235.195C298.548 235.655 298.423 236.215 298.423 236.875C298.423 237.545 298.543 238.11 298.783 238.57C299.033 239.03 299.363 239.375 299.773 239.605C300.183 239.825 300.633 239.935 301.123 239.935ZM310.718 241.135C309.948 241.135 309.248 240.96 308.618 240.61C307.998 240.26 307.508 239.765 307.148 239.125C306.798 238.475 306.623 237.725 306.623 236.875C306.623 236.035 306.803 235.295 307.163 234.655C307.533 234.005 308.033 233.51 308.663 233.17C309.293 232.82 309.998 232.645 310.778 232.645C311.558 232.645 312.263 232.82 312.893 233.17C313.523 233.51 314.018 234 314.378 234.64C314.748 235.28 314.933 236.025 314.933 236.875C314.933 237.725 314.743 238.475 314.363 239.125C313.993 239.765 313.488 240.26 312.848 240.61C312.208 240.96 311.498 241.135 310.718 241.135ZM310.718 239.935C311.208 239.935 311.668 239.82 312.098 239.59C312.528 239.36 312.873 239.015 313.133 238.555C313.403 238.095 313.538 237.535 313.538 236.875C313.538 236.215 313.408 235.655 313.148 235.195C312.888 234.735 312.548 234.395 312.128 234.175C311.708 233.945 311.253 233.83 310.763 233.83C310.263 233.83 309.803 233.945 309.383 234.175C308.973 234.395 308.643 234.735 308.393 235.195C308.143 235.655 308.018 236.215 308.018 236.875C308.018 237.545 308.138 238.11 308.378 238.57C308.628 239.03 308.958 239.375 309.368 239.605C309.778 239.825 310.228 239.935 310.718 239.935ZM320.732 232.63C321.732 232.63 322.542 232.935 323.162 233.545C323.782 234.145 324.092 235.015 324.092 236.155V241H322.742V236.35C322.742 235.53 322.537 234.905 322.127 234.475C321.717 234.035 321.157 233.815 320.447 233.815C319.727 233.815 319.152 234.04 318.722 234.49C318.302 234.94 318.092 235.595 318.092 236.455V241H316.727V232.78H318.092V233.95C318.362 233.53 318.727 233.205 319.187 232.975C319.657 232.745 320.172 232.63 320.732 232.63ZM328.092 230.545L327.927 238.045H326.787L326.622 230.545H328.092ZM327.417 241.09C327.157 241.09 326.937 241 326.757 240.82C326.577 240.64 326.487 240.42 326.487 240.16C326.487 239.9 326.577 239.68 326.757 239.5C326.937 239.32 327.157 239.23 327.417 239.23C327.667 239.23 327.877 239.32 328.047 239.5C328.227 239.68 328.317 239.9 328.317 240.16C328.317 240.42 328.227 240.64 328.047 240.82C327.877 241 327.667 241.09 327.417 241.09Z" fill="#6F6F75"/>
<defs>
<clipPath id="clip0_3661_14595">
<rect width="413" height="200" fill="white"/>
</clipPath>
</defs>
</svg>
