<svg width="180" height="199" viewBox="0 0 180 199" fill="none" xmlns="http://www.w3.org/2000/svg">
<path fill-rule="evenodd" clip-rule="evenodd" d="M100.392 2.7413L169.608 42.0813C176.038 45.7364 180 52.4912 180 59.8013V138.481C180 145.791 176.038 152.546 169.608 156.201L100.392 195.541C93.9615 199.196 86.0385 199.196 79.6077 195.541L10.3923 156.201C3.96152 152.546 0 145.791 0 138.481L0 59.8013C0 52.4912 3.96152 45.7364 10.3923 42.0813L79.6077 2.7413C86.0385 -0.913767 93.9615 -0.913767 100.392 2.7413ZM90.0039 68.4492L63.0039 83.7953V114.487L90.0039 129.833L117.004 114.487V83.7953L90.0039 68.4492Z" fill="white"/>
</svg>
