<svg width="73" height="24" viewBox="0 0 73 24" fill="none" xmlns="http://www.w3.org/2000/svg">
<path fill-rule="evenodd" clip-rule="evenodd" d="M28.0347 16.3126L31.7536 6.67793H33.7217L37.4271 16.3126H35.6219L34.889 14.3394H30.5457L29.8263 16.3126H28.0347ZM32.7173 8.41979L31.0614 12.9241H34.3732L32.7173 8.41979ZM44.754 12.7336C44.754 15.0878 43.4781 16.435 41.7001 16.435C41.0079 16.435 40.4378 16.2309 39.8813 15.8907V18.4627H38.2662V9.19546H39.5013L39.7592 9.86226C40.2749 9.44041 40.9264 9.07298 41.8494 9.07298C43.5053 9.07298 44.754 10.4066 44.754 12.7336ZM43.2067 12.7336C43.2067 11.2639 42.4602 10.393 41.3879 10.393C40.7771 10.393 40.2614 10.6651 39.8813 10.9781V14.6115C40.3021 14.8973 40.8043 15.115 41.3472 15.1014C42.4466 15.1014 43.2067 14.2849 43.2067 12.7336ZM52.2573 12.7336C52.2573 15.0878 50.9815 16.435 49.2034 16.435C48.5112 16.435 47.9411 16.2309 47.3847 15.8907V18.4627H45.7695V9.19546H47.0046L47.2625 9.86226C47.7783 9.44041 48.4298 9.07298 49.3527 9.07298C51.0086 9.07298 52.2573 10.4066 52.2573 12.7336ZM50.71 12.7336C50.71 11.2639 49.9635 10.393 48.8913 10.393C48.2805 10.393 47.7647 10.6651 47.3847 10.9781V14.6115C47.8054 14.8973 48.3076 15.115 48.8505 15.1014C49.9499 15.1014 50.71 14.2849 50.71 12.7336ZM59.3535 13.2779H54.4129C54.4944 14.4482 55.2816 15.2511 56.5439 15.2511C57.209 15.2511 57.969 15.0334 58.6477 14.6524L59.082 15.7002C58.2812 16.1765 57.3175 16.435 56.4082 16.435C54.3315 16.435 52.9064 15.1559 52.9064 12.788C52.9064 10.5291 54.2908 9.04577 56.1638 9.04577C58.1319 9.04577 59.3535 10.5835 59.3535 12.8561V13.2779ZM56.1503 10.2569C55.173 10.2569 54.508 11.087 54.4129 12.2845H57.8605C57.7654 11.087 57.1411 10.2569 56.1503 10.2569ZM61.9027 16.3126H60.2875V6.43298H61.9027V16.3126ZM64.9134 16.3126H63.2982V6.43298H64.9134V16.3126ZM72.6611 12.7472C72.6611 15.0062 71.2088 16.4623 69.295 16.4623C67.3541 16.4623 65.9289 15.0198 65.9289 12.7608C65.9289 10.5019 67.3812 9.04577 69.3086 9.04577C71.2223 9.04577 72.6611 10.4882 72.6611 12.7472ZM71.1681 12.7608C71.1681 11.3592 70.3944 10.3794 69.295 10.3794C68.182 10.3794 67.4219 11.3456 67.4219 12.7472C67.4219 14.1489 68.1956 15.115 69.3086 15.115C70.3944 15.115 71.1681 14.1625 71.1681 12.7608Z" fill="white"/>
<path fill-rule="evenodd" clip-rule="evenodd" d="M11.9198 0.331484L20.1378 5.08856C20.9014 5.53053 21.3717 6.34734 21.3717 7.2313V16.7454C21.3717 17.6294 20.9014 18.4462 20.1378 18.8882L11.9198 23.6453C11.1562 24.0872 10.2155 24.0872 9.45197 23.6453L1.2339 18.8882C0.470359 18.4462 0 17.6294 0 16.7454V7.2313C0 6.34734 0.470359 5.53053 1.2339 5.08856L9.45197 0.331484C10.2155 -0.110495 11.1562 -0.110495 11.9198 0.331484ZM10.6859 8.27703L7.48011 10.1327V13.844L10.6859 15.6997L13.8916 13.844V10.1327L10.6859 8.27703Z" fill="white"/>
</svg>
