<svg width="24" height="24" viewBox="0 0 24 24" fill="none" xmlns="http://www.w3.org/2000/svg">
<path fill-rule="evenodd" clip-rule="evenodd" d="M2 12C2 6.48 6.48 2 12 2C17.52 2 22 6.48 22 12C22 17.52 17.52 22 12 22C6.48 22 2 17.52 2 12ZM10.5275 13.4675C10.8175 13.7575 10.8175 14.2375 10.5275 14.5275C10.3775 14.6775 10.1875 14.7475 9.9975 14.7475C9.8075 14.7475 9.6175 14.6775 9.4675 14.5275L7.4675 12.5275C7.1775 12.2375 7.1775 11.7575 7.4675 11.4675L9.4675 9.4675C9.7575 9.1775 10.2375 9.1775 10.5275 9.4675C10.8175 9.7575 10.8175 10.2375 10.5275 10.5275L9.0575 11.9975L10.5275 13.4675ZM16.5275 12.5275L14.5275 14.5275C14.3775 14.6775 14.1875 14.7475 13.9975 14.7475C13.8075 14.7475 13.6175 14.6775 13.4675 14.5275C13.1775 14.2375 13.1775 13.7575 13.4675 13.4675L14.9375 11.9975L13.4675 10.5275C13.1775 10.2375 13.1775 9.7575 13.4675 9.4675C13.7575 9.1775 14.2375 9.1775 14.5275 9.4675L16.5275 11.4675C16.8175 11.7575 16.8175 12.2375 16.5275 12.5275Z" fill="#292D32"/>
</svg>
