<svg width="16" height="16" viewBox="0 0 16 16" fill="none" xmlns="http://www.w3.org/2000/svg">
<path d="M11.1425 0.5H4.8575C2.1275 0.5 0.5 2.1275 0.5 4.8575V11.135C0.5 13.8725 2.1275 15.5 4.8575 15.5H11.135C13.865 15.5 15.4925 13.8725 15.4925 11.1425V4.8575C15.5 2.1275 13.8725 0.5 11.1425 0.5ZM6.4325 11.1425C6.4325 11.6225 6.0425 12.0125 5.555 12.0125C5.075 12.0125 4.685 11.6225 4.685 11.1425V8.6975C4.685 8.2175 5.075 7.8275 5.555 7.8275C6.0425 7.8275 6.4325 8.2175 6.4325 8.6975V11.1425ZM11.315 11.1425C11.315 11.6225 10.925 12.0125 10.445 12.0125C9.9575 12.0125 9.5675 11.6225 9.5675 11.1425V4.8575C9.5675 4.3775 9.9575 3.9875 10.445 3.9875C10.925 3.9875 11.315 4.3775 11.315 4.8575V11.1425Z" fill="white" />
</svg>
