<svg width="20" height="20" viewBox="0 0 22 22" fill="none" xmlns="http://www.w3.org/2000/svg">
<path d="M20 3.41L20.71 2.71C20.8983 2.5217 21.0041 2.2663 21.0041 2C21.0041 1.7337 20.8983 1.47831 20.71 1.29C20.5217 1.1017 20.2663 0.995911 20 0.995911C19.7337 0.995911 19.4783 1.1017 19.29 1.29L17.89 2.7L15.06 5.53L8.74997 11.83C7.71601 11.1478 6.46564 10.8738 5.24114 11.0609C4.01664 11.248 2.90519 11.883 2.12216 12.8429C1.33913 13.8027 0.940263 15.019 1.00285 16.2561C1.06544 17.4933 1.58503 18.6631 2.46093 19.539C3.33684 20.415 4.5067 20.9345 5.74383 20.9971C6.98097 21.0597 8.19729 20.6608 9.15712 19.8778C10.117 19.0948 10.752 17.9833 10.9391 16.7588C11.1262 15.5343 10.8521 14.284 10.17 13.25L15.76 7.65L17.88 9.78C17.9732 9.87258 18.0838 9.9459 18.2053 9.99575C18.3269 10.0456 18.4571 10.071 18.5885 10.0706C18.7199 10.0701 18.8499 10.0438 18.9711 9.99304C19.0924 9.94233 19.2024 9.86824 19.295 9.775C19.3876 9.68176 19.4609 9.5712 19.5107 9.44963C19.5606 9.32806 19.586 9.19786 19.5855 9.06647C19.5851 8.93507 19.5587 8.80505 19.508 8.68384C19.4573 8.56262 19.3832 8.45258 19.29 8.36L17.17 6.24L18.59 4.83L19.29 5.53C19.3826 5.62324 19.4926 5.69733 19.6138 5.74804C19.735 5.79875 19.865 5.82509 19.9964 5.82556C20.1278 5.82602 20.258 5.8006 20.3796 5.75075C20.5012 5.70089 20.6117 5.62758 20.705 5.535C20.7982 5.44242 20.8723 5.33238 20.923 5.21116C20.9737 5.08995 21.0001 4.95993 21.0005 4.82854C21.001 4.69714 20.9756 4.56694 20.9257 4.44537C20.8759 4.3238 20.8026 4.21324 20.71 4.12L20 3.41ZM5.99997 19C5.40663 19 4.82661 18.8241 4.33326 18.4944C3.83992 18.1648 3.4554 17.6962 3.22834 17.1481C3.00127 16.5999 2.94186 15.9967 3.05762 15.4147C3.17337 14.8328 3.4591 14.2982 3.87865 13.8787C4.29821 13.4591 4.83276 13.1734 5.4147 13.0576C5.99665 12.9419 6.59985 13.0013 7.14802 13.2284C7.6962 13.4554 8.16474 13.8399 8.49438 14.3333C8.82403 14.8266 8.99997 15.4067 8.99997 16C8.99997 16.7957 8.6839 17.5587 8.12129 18.1213C7.55869 18.6839 6.79562 19 5.99997 19Z" fill="black"/>
</svg>
