<svg width="27" height="32" viewBox="0 0 27 32" fill="none" xmlns="http://www.w3.org/2000/svg">
<path d="M21.4154 11.25V8.08334C21.4154 5.98371 20.5813 3.97007 19.0966 2.48541C17.612 1.00075 15.5983 0.166672 13.4987 0.166672C11.3991 0.166672 9.38543 1.00075 7.90077 2.48541C6.41611 3.97007 5.58203 5.98371 5.58203 8.08334V11.25C4.32225 11.25 3.11407 11.7504 2.22327 12.6412C1.33248 13.532 0.832031 14.7402 0.832031 16V27.0833C0.832031 28.3431 1.33248 29.5513 2.22327 30.4421C3.11407 31.3329 4.32225 31.8333 5.58203 31.8333H21.4154C22.6751 31.8333 23.8833 31.3329 24.7741 30.4421C25.6649 29.5513 26.1654 28.3431 26.1654 27.0833V16C26.1654 14.7402 25.6649 13.532 24.7741 12.6412C23.8833 11.7504 22.6751 11.25 21.4154 11.25ZM8.7487 8.08334C8.7487 6.82356 9.24914 5.61538 10.1399 4.72458C11.0307 3.83378 12.2389 3.33334 13.4987 3.33334C14.7585 3.33334 15.9667 3.83378 16.8575 4.72458C17.7483 5.61538 18.2487 6.82356 18.2487 8.08334V11.25H8.7487V8.08334ZM22.9987 27.0833C22.9987 27.5033 22.8319 27.906 22.535 28.2029C22.238 28.4999 21.8353 28.6667 21.4154 28.6667H5.58203C5.16211 28.6667 4.75938 28.4999 4.46245 28.2029C4.16551 27.906 3.9987 27.5033 3.9987 27.0833V16C3.9987 15.5801 4.16551 15.1774 4.46245 14.8804C4.75938 14.5835 5.16211 14.4167 5.58203 14.4167H21.4154C21.8353 14.4167 22.238 14.5835 22.535 14.8804C22.8319 15.1774 22.9987 15.5801 22.9987 16V27.0833Z" fill="#0A8BFE"/>
</svg>
