<svg width="16" height="17" viewBox="0 0 16 17" fill="none" xmlns="http://www.w3.org/2000/svg">
<path d="M7.99967 1.83333C6.25301 1.83333 4.83301 3.25333 4.83301 4.99999C4.83301 6.71333 6.17301 8.09999 7.91967 8.15999C7.97301 8.15333 8.02634 8.15333 8.06634 8.15999C8.07967 8.15999 8.08634 8.15999 8.09967 8.15999C8.10634 8.15999 8.10634 8.15999 8.11301 8.15999C9.81967 8.09999 11.1597 6.71333 11.1663 4.99999C11.1663 3.25333 9.74634 1.83333 7.99967 1.83333Z" fill="#6F6F75"/>
<path d="M11.3866 9.93333C9.52664 8.69333 6.49331 8.69333 4.61997 9.93333C3.77331 10.5 3.30664 11.2667 3.30664 12.0867C3.30664 12.9067 3.77331 13.6667 4.61331 14.2267C5.54664 14.8533 6.77331 15.1667 7.99997 15.1667C9.22664 15.1667 10.4533 14.8533 11.3866 14.2267C12.2266 13.66 12.6933 12.9 12.6933 12.0733C12.6866 11.2533 12.2266 10.4933 11.3866 9.93333Z" fill="#6F6F75"/>
</svg>
