<svg width="16" height="17" viewBox="0 0 16 17" fill="none" xmlns="http://www.w3.org/2000/svg">
<path d="M12 3.16666H10.5V2.33333C10.5 2.05999 10.2733 1.83333 10 1.83333C9.72667 1.83333 9.5 2.05999 9.5 2.33333V14.6667C9.5 14.94 9.72667 15.1667 10 15.1667C10.2733 15.1667 10.5 14.94 10.5 14.6667V13.8333H12C13.4733 13.8333 14.6667 12.64 14.6667 11.1667V5.83333C14.6667 4.35999 13.4733 3.16666 12 3.16666Z" fill="#6F6F75"/>
<path d="M4.33366 3.16667C2.86033 3.16667 1.66699 4.36001 1.66699 5.83334V11.1667C1.66699 12.64 2.86033 13.8333 4.33366 13.8333H7.66699C8.03366 13.8333 8.33366 13.5333 8.33366 13.1667V3.83334C8.33366 3.46667 8.03366 3.16667 7.66699 3.16667H4.33366ZM4.44699 8.75334C4.41366 8.83334 4.36699 8.90667 4.30699 8.97334C4.24033 9.03334 4.16699 9.08 4.08699 9.11334C4.00699 9.14667 3.92033 9.16667 3.83366 9.16667C3.74699 9.16667 3.66033 9.14667 3.58033 9.11334C3.50033 9.08 3.42699 9.03334 3.36033 8.97334C3.30033 8.90667 3.25366 8.83334 3.21366 8.75334C3.18033 8.67334 3.16699 8.58667 3.16699 8.5C3.16699 8.32667 3.24033 8.15334 3.36033 8.02667C3.39366 8 3.42699 7.97334 3.46033 7.94667C3.50033 7.92 3.54033 7.9 3.58033 7.88667C3.62033 7.86667 3.66033 7.85334 3.70033 7.84667C3.92699 7.8 4.15366 7.87334 4.30699 8.02667C4.42699 8.15334 4.50033 8.32667 4.50033 8.5C4.50033 8.58667 4.48033 8.67334 4.44699 8.75334ZM6.78033 8.75334C6.74699 8.83334 6.70033 8.90667 6.64033 8.97334C6.57366 9.03334 6.50033 9.08 6.42033 9.11334C6.34033 9.14667 6.25366 9.16667 6.16699 9.16667C6.08033 9.16667 5.99366 9.14667 5.91366 9.11334C5.83366 9.08 5.76033 9.03334 5.69366 8.97334C5.56699 8.84667 5.50033 8.68 5.50033 8.5C5.50033 8.41334 5.52033 8.32667 5.55366 8.24667C5.58699 8.16 5.63366 8.09334 5.69366 8.02667C5.94033 7.78 6.38699 7.78 6.64033 8.02667C6.76033 8.15334 6.83366 8.32667 6.83366 8.5C6.83366 8.58667 6.81366 8.67334 6.78033 8.75334Z" fill="#6F6F75"/>
</svg>
