<svg width="14" height="15" viewBox="0 0 14 15" fill="none" xmlns="http://www.w3.org/2000/svg">
<path d="M13.6667 4.18914C13.6672 4.10141 13.6503 4.01443 13.6172 3.93321C13.584 3.85198 13.5351 3.77811 13.4733 3.71581L10.6467 0.889145C10.5844 0.827358 10.5105 0.778474 10.4293 0.745298C10.348 0.712121 10.2611 0.695305 10.1733 0.695812C10.0856 0.695305 9.99861 0.712121 9.91739 0.745298C9.83616 0.778474 9.76228 0.827358 9.69999 0.889145L7.81332 2.77581L0.526657 10.0625C0.46487 10.1248 0.415986 10.1986 0.38281 10.2799C0.349634 10.3611 0.332817 10.4481 0.333324 10.5358V13.3625C0.333324 13.5393 0.403562 13.7089 0.528586 13.8339C0.65361 13.9589 0.82318 14.0291 0.999991 14.0291H3.82666C3.91994 14.0342 4.01325 14.0196 4.10054 13.9863C4.18782 13.953 4.26713 13.9017 4.33332 13.8358L11.58 6.54915L13.4733 4.69581C13.5342 4.6312 13.5838 4.55683 13.62 4.47581C13.6264 4.42267 13.6264 4.36895 13.62 4.31581C13.6231 4.28478 13.6231 4.25351 13.62 4.22248L13.6667 4.18914ZM3.55332 12.6958H1.66666V10.8091L8.28666 4.18914L10.1733 6.07581L3.55332 12.6958ZM11.1133 5.13581L9.22666 3.24915L10.1733 2.30915L12.0533 4.18914L11.1133 5.13581Z" fill="#1B7FDB"/>
</svg>
