<svg width="18" height="18" viewBox="0 0 18 18" fill="none" xmlns="http://www.w3.org/2000/svg">
<path d="M15.8173 5.23501C15.1798 4.53001 14.1148 4.17751 12.5698 4.17751H12.3898V4.14751C12.3898 2.88751 12.3898 1.32751 9.56978 1.32751H8.42978C5.60978 1.32751 5.60978 2.89501 5.60978 4.14751V4.18501H5.42978C3.87728 4.18501 2.81978 4.53751 2.18228 5.24251C1.43978 6.06751 1.46228 7.17751 1.53728 7.93501L1.54478 7.98751L1.59724 8.5383C1.6115 8.68807 1.69223 8.82346 1.81829 8.90557C2.00007 9.02397 2.26513 9.19354 2.42978 9.28502C2.53478 9.35252 2.64728 9.41251 2.75978 9.47252C4.04228 10.1775 5.45228 10.65 6.88478 10.8825C6.95228 11.5875 7.25978 12.4125 8.90228 12.4125C10.5448 12.4125 10.8673 11.595 10.9198 10.8675C12.4498 10.62 13.9273 10.0875 15.2623 9.30751C15.3073 9.28501 15.3373 9.26251 15.3748 9.24001C15.6568 9.08064 15.9487 8.8862 16.218 8.69354C16.3313 8.61245 16.4035 8.48627 16.4189 8.34776L16.4248 8.29502L16.4623 7.94251C16.4698 7.89751 16.4698 7.86001 16.4773 7.80751C16.5373 7.05001 16.5223 6.01501 15.8173 5.23501ZM9.81728 10.3725C9.81728 11.1675 9.81728 11.2875 8.89478 11.2875C7.97228 11.2875 7.97228 11.145 7.97228 10.38V9.43501H9.81728V10.3725ZM6.68228 4.17751V4.14751C6.68228 2.87251 6.68228 2.40001 8.42978 2.40001H9.56978C11.3173 2.40001 11.3173 2.88001 11.3173 4.14751V4.18501H6.68228V4.17751Z" fill="white"/>
<path d="M15.4531 10.3962C15.8074 10.2295 16.2142 10.5104 16.1788 10.9004L15.9299 13.6425C15.7724 15.1425 15.1574 16.6725 11.8574 16.6725H6.14238C2.84238 16.6725 2.22738 15.1425 2.06988 13.65L1.83417 11.0572C1.79913 10.6717 2.19687 10.3913 2.55017 10.5493C3.41217 10.935 4.7855 11.5216 5.69043 11.7696C5.85424 11.8145 5.98783 11.9329 6.06388 12.0848C6.53151 13.0187 7.50698 13.515 8.90238 13.515C10.2841 13.515 11.2712 12.9996 11.7407 12.0625C11.8169 11.9105 11.9503 11.7922 12.1142 11.747C13.0776 11.4812 14.547 10.8225 15.4531 10.3962Z" fill="white"/>
</svg>
