<svg width="18" height="18" viewBox="0 0 18 18" fill="none" xmlns="http://www.w3.org/2000/svg">
<g>
<path d="M15.3675 5.64C15.3632 5.62023 15.3632 5.59977 15.3675 5.58C15.3638 5.56269 15.3638 5.54481 15.3675 5.5275V5.46L15.3225 5.3475C15.3042 5.3168 15.2815 5.289 15.255 5.265L15.1875 5.205H15.15L12.195 3.3375L9.40499 1.6125C9.34044 1.5613 9.26658 1.52309 9.18749 1.5H9.12749C9.06045 1.48881 8.99203 1.48881 8.92499 1.5H8.84999C8.76287 1.51927 8.67934 1.55217 8.60249 1.5975L2.99999 5.085L2.93249 5.1375L2.86499 5.1975L2.78999 5.25L2.75249 5.295L2.70749 5.4075V5.475V5.52C2.70021 5.56973 2.70021 5.62026 2.70749 5.67V12.2175C2.70723 12.345 2.73947 12.4704 2.80114 12.5819C2.86282 12.6935 2.95191 12.7874 3.05999 12.855L8.68499 16.335L8.79749 16.38H8.85749C8.98438 16.4202 9.1206 16.4202 9.24749 16.38H9.30749L9.41999 16.335L15 12.9075C15.1081 12.8399 15.1972 12.746 15.2588 12.6344C15.3205 12.5229 15.3527 12.3975 15.3525 12.27V5.7225C15.3525 5.7225 15.3675 5.67 15.3675 5.64ZM8.99999 3.1275L10.335 3.9525L6.14249 6.5475L4.79999 5.7225L8.99999 3.1275ZM8.24999 14.3775L4.12499 11.8575V7.065L8.24999 9.615V14.3775ZM8.99999 8.295L7.56749 7.4325L11.76 4.83L13.2 5.7225L8.99999 8.295ZM13.875 11.835L9.74999 14.4V9.615L13.875 7.065V11.835Z" fill="white"/>
</g>
</svg>
