<svg width="18" height="19" viewBox="0 0 18 19" fill="none" xmlns="http://www.w3.org/2000/svg">
<path d="M9 2C4.86 2 1.5 5.36 1.5 9.5C1.5 13.64 4.86 17 9 17C13.14 17 16.5 13.64 16.5 9.5C16.5 5.36 13.14 2 9 2ZM6.4875 11.5775C6.405 11.8025 6.1875 11.945 5.9625 11.945C5.895 11.945 5.835 11.9375 5.7675 11.9075C5.16 11.6825 4.65 11.24 4.3275 10.6625C3.5775 9.3125 4.0425 7.55 5.355 6.7325L7.11 5.645C7.755 5.2475 8.5125 5.1275 9.2325 5.315C9.9525 5.5025 10.56 5.975 10.9275 6.635C11.6775 7.985 11.2125 9.7475 9.9 10.565L9.705 10.7075C9.45 10.8875 9.0975 10.8275 8.9175 10.58C8.7375 10.325 8.7975 9.9725 9.045 9.7925L9.2775 9.6275C10.1175 9.1025 10.4025 8.015 9.945 7.1825C9.7275 6.7925 9.375 6.515 8.955 6.4025C8.535 6.29 8.0925 6.3575 7.71 6.5975L5.94 7.6925C5.13 8.195 4.845 9.2825 5.3025 10.1225C5.49 10.46 5.79 10.7225 6.15 10.8575C6.4425 10.9625 6.5925 11.285 6.4875 11.5775ZM12.69 12.2375L10.935 13.325C10.4925 13.6025 9.9975 13.7375 9.495 13.7375C9.27 13.7375 9.0375 13.7075 8.8125 13.6475C8.0925 13.46 7.485 12.9875 7.125 12.3275C6.375 10.9775 6.84 9.215 8.1525 8.3975L8.3475 8.255C8.6025 8.075 8.955 8.135 9.135 8.3825C9.315 8.6375 9.255 8.99 9.0075 9.17L8.775 9.335C7.935 9.86 7.65 10.9475 8.1075 11.78C8.325 12.17 8.6775 12.4475 9.0975 12.56C9.5175 12.6725 9.96 12.605 10.3425 12.365L12.0975 11.2775C12.9075 10.775 13.1925 9.6875 12.735 8.8475C12.5475 8.51 12.2475 8.2475 11.8875 8.1125C11.595 8.0075 11.445 7.685 11.5575 7.3925C11.6625 7.1 11.9925 6.95 12.2775 7.0625C12.885 7.2875 13.395 7.73 13.7175 8.3075C14.46 9.6575 14.0025 11.42 12.69 12.2375Z" fill="#6F6F75"/>
</svg>
