<svg width="18" height="18" viewBox="0 0 18 18" fill="none" xmlns="http://www.w3.org/2000/svg">
<path d="M6.75 1.5C4.785 1.5 3.1875 3.0975 3.1875 5.0625C3.1875 6.99 4.695 8.55 6.66 8.6175C6.72 8.61 6.78 8.61 6.825 8.6175C6.84 8.6175 6.8475 8.6175 6.8625 8.6175C6.87 8.6175 6.87 8.6175 6.8775 8.6175C8.7975 8.55 10.305 6.99 10.3125 5.0625C10.3125 3.0975 8.715 1.5 6.75 1.5Z" fill="white"/>
<path d="M10.5602 10.6125C8.46771 9.2175 5.05521 9.2175 2.94771 10.6125C1.99521 11.25 1.47021 12.1125 1.47021 13.035C1.47021 13.9575 1.99521 14.8125 2.94021 15.4425C3.99021 16.1475 5.37021 16.5 6.75021 16.5C8.13021 16.5 9.51021 16.1475 10.5602 15.4425C11.5052 14.805 12.0302 13.95 12.0302 13.02C12.0227 12.0975 11.5052 11.2425 10.5602 10.6125Z" fill="white" />
<path d="M14.9925 5.50501C15.1125 6.96001 14.0775 8.23501 12.645 8.40751C12.6375 8.40751 12.6375 8.40751 12.63 8.40751H12.6075C12.5625 8.40751 12.5175 8.40751 12.48 8.42251C11.7525 8.46001 11.085 8.22751 10.5825 7.80001C11.355 7.11001 11.7975 6.07501 11.7075 4.95001C11.655 4.34251 11.445 3.78751 11.13 3.31501C11.415 3.17251 11.745 3.08251 12.0825 3.05251C13.5525 2.92501 14.865 4.02001 14.9925 5.50501Z" fill="white" />
<path d="M16.4927 12.4425C16.4327 13.17 15.9677 13.8 15.1877 14.2275C14.4377 14.64 13.4927 14.835 12.5552 14.8125C13.0952 14.325 13.4102 13.7175 13.4702 13.0725C13.5452 12.1425 13.1027 11.25 12.2177 10.5375C11.7152 10.14 11.1302 9.82499 10.4927 9.59249C12.1502 9.11249 14.2352 9.43499 15.5177 10.47C16.2077 11.025 16.5602 11.7225 16.4927 12.4425Z" fill="white"/>
</svg>
