<svg width="24" height="24" viewBox="0 0 24 24" fill="none" xmlns="http://www.w3.org/2000/svg">
<path d="M5.05998 15.172C5.05998 16.5669 3.93349 17.6943 2.53969 17.6943C1.1459 17.6943 0.0194069 16.5669 0.0194069 15.172C0.0194069 13.7771 1.1459 12.6497 2.53969 12.6497H5.05998V15.172ZM6.32013 15.172C6.32013 13.7771 7.44662 12.6497 8.84041 12.6497C10.2342 12.6497 11.3607 13.7771 11.3607 15.172V21.4777C11.3607 22.8726 10.2342 24 8.84041 24C7.44662 24 6.32013 22.8726 6.32013 21.4777V15.172Z" fill="#E01E5A"/>
<path d="M8.8401 5.04459C7.4463 5.04459 6.31981 3.9172 6.31981 2.52229C6.31981 1.12739 7.4463 0 8.8401 0C10.2339 0 11.3604 1.12739 11.3604 2.52229V5.04459H8.8401ZM8.8401 6.32484C10.2339 6.32484 11.3604 7.45223 11.3604 8.84714C11.3604 10.242 10.2339 11.3694 8.8401 11.3694H2.52029C1.12649 11.3694 0 10.242 0 8.84714C0 7.45223 1.12649 6.32484 2.52029 6.32484H8.8401Z" fill="#36C5F0"/>
<path d="M18.9406 8.84714C18.9406 7.45223 20.067 6.32484 21.4608 6.32484C22.8546 6.32484 23.9811 7.45223 23.9811 8.84714C23.9811 10.242 22.8546 11.3694 21.4608 11.3694H18.9406V8.84714ZM17.6804 8.84714C17.6804 10.242 16.5539 11.3694 15.1601 11.3694C13.7663 11.3694 12.6398 10.242 12.6398 8.84714V2.52229C12.6398 1.12739 13.7663 0 15.1601 0C16.5539 0 17.6804 1.12739 17.6804 2.52229V8.84714Z" fill="#2EB67D"/>
<path d="M15.1601 18.9554C16.5539 18.9554 17.6804 20.0828 17.6804 21.4777C17.6804 22.8726 16.5539 24 15.1601 24C13.7663 24 12.6398 22.8726 12.6398 21.4777V18.9554H15.1601ZM15.1601 17.6943C13.7663 17.6943 12.6398 16.5669 12.6398 15.172C12.6398 13.7771 13.7663 12.6497 15.1601 12.6497H21.4799C22.8737 12.6497 24.0002 13.7771 24.0002 15.172C24.0002 16.5669 22.8737 17.6943 21.4799 17.6943H15.1601Z" fill="#ECB22E"/>
</svg>
